<?xml version="1.0" standalone="no"?>
<!DOCTYPE svg PUBLIC "-//W3C//DTD SVG 1.1//EN" "http://www.w3.org/Graphics/SVG/1.1/DTD/svg11.dtd" >
<svg xmlns="http://www.w3.org/2000/svg">
<metadata>
This is a custom SVG webfont generated by Font Squirrel.
Copyright   : Copyright c 2011 by Marcelo Magalhes marcelomagalhaesnet with Reserved Font Name Londrina Solid
Designer    : Marcelo Magalhaes
Foundry     : Marcelo Magalhes
Foundry URL : wwwtipospereiracom
</metadata>
<defs>
<font id="LondrinaSolidRegular" horiz-adv-x="1048" >
<font-face units-per-em="2048" ascent="1638" descent="-410" />
<missing-glyph horiz-adv-x="487" />
<glyph unicode=" "  horiz-adv-x="487" />
<glyph unicode="&#x09;" horiz-adv-x="487" />
<glyph unicode="&#xa0;" horiz-adv-x="487" />
<glyph unicode="!" horiz-adv-x="395" d="M63 887.5q-5 433.5 9 550.5h6q14 2 57 6t68.5 6t62.5 1t64 -9q-12 -756 2 -1084q-39 -4 -264 -10h-2q2 106 -3 539.5zM71 47q1 31 7 99.5t6 95.5v2q29 12 71 13t98 -4t81 -5q-6 -227 -6 -246h-15q-16 0 -39.5 1t-37.5 1h-5l-153 -2q-8 14 -7 45z" />
<glyph unicode="&#x22;" horiz-adv-x="763" d="M70 940v2q0 420 4 496v4h2q4 0 65.5 6t98 7t57.5 -9q0 -51 2 -271.5t2 -232.5h-45q-45 0 -104.5 -1t-81.5 -1zM465 940v2q0 420 4 496v4h2q4 0 65.5 6t98.5 7t57 -9q0 -51 2 -271.5t2 -232.5h-45q-45 0 -104.5 -1t-81.5 -1z" />
<glyph unicode="#" horiz-adv-x="1343" d="M37 537q16 -16 225 -11q4 4 8 13.5t9.5 30t12.5 46t21.5 71.5t32.5 97q-14 0 -283 -2l-4 222l3 -1q51 -16 290 -10h64q0 2 1 2t1 2q12 25 48 138.5t48 169.5v2q6 -2 244 -11q0 -2 -90 -301q37 0 114.5 1t128.5 -1q35 53 103 314h2h2q39 -6 116.5 -4t114.5 -5q2 -6 2 -12 t-1 -13t-5 -18.5t-7 -24.5t-11 -38t-15.5 -50.5t-20.5 -67.5t-26 -87q23 0 66 -1t63 -1v-8l15 -188l-217 -7q-14 -43 -43 -129t-43 -129h48q38 0 97 -2t121 -6q8 -18 9 -37.5t1 -61.5t4 -91v-4q-39 -4 -75.5 -5.5t-112.5 -1.5t-162 -2h-2h-4q-4 -6 -23.5 -63t-47.5 -131 t-50 -117l-2 -2h-4h-234q16 63 54.5 168.5t50.5 151.5h-2q-51 4 -238 0q-14 -45 -23.5 -70t-15.5 -37t-21.5 -48t-35.5 -91q-12 -43 -29 -72q-4 -4 -16 -4q-86 6 -219 0q8 41 21.5 87t22.5 71.5t31.5 84t28.5 74.5q-20 0 -66 -3t-69 -1q-2 33 -3 70t-2 83t-1 71zM506 526 l256 2l1 2q1 2 1 5q10 45 41 126.5t41 122.5v2h-2h-2q-176 4 -244 5h-4v-3q-16 -43 -45 -131t-43 -131z" />
<glyph unicode="$" horiz-adv-x="897" d="M33 391q0 37 1 52.5t10 29.5t28.5 18.5t54.5 4.5q6 0 80 -7q12 -2 47 -2t50 -3t29.5 -18t14.5 -44q0 -12 1 -32.5t1 -31.5q0 -90 86 -90q35 0 64.5 21.5t29.5 52.5q0 78 -62 149.5t-166.5 151.5t-141.5 121q-111 125 -111 274q0 111 74 184.5t184 106.5q6 2 8 6t0 11.5 t-2 11.5q0 6 -5 75.5t-5 75.5q0 8 4 14.5t11.5 10.5t15.5 6t22 2h21h23h22q163 0 176 -26v-168q0 -27 27 -29q70 -6 126 -58.5t84.5 -111.5t28.5 -191q0 -53 -69 -53h-33q-20 0 -57 -2t-58 -2q-59 0 -82.5 25.5t-21.5 57.5t-13.5 57.5t-58.5 25.5q-33 0 -64.5 -28.5 t-31.5 -63.5t19.5 -69t60.5 -69.5t71.5 -59t87 -61.5t74.5 -50q76 -55 122 -151.5t46 -186.5q0 -139 -121 -238q-10 -10 -65.5 -44t-63.5 -34q0 -8 -1 -71.5t-1 -73.5v-8q0 -55 -78 -56q-12 0 -40.5 -1t-45.5 -1h-57q-51 0 -65.5 29t-6.5 65.5t-4 74.5t-57 53 q-137 45 -177 127.5t-40 240.5z" />
<glyph unicode="%" horiz-adv-x="1249" d="M41 1051l4 51q2 10 5 44t6 50t10.5 43t17.5 46.5t27 35.5q61 76 151 78q96 4 154.5 -58.5t77.5 -154.5q10 -74 8 -119q4 -86 -16.5 -167t-80 -142.5t-147.5 -57.5q-55 4 -98 27q-78 51 -101 150q-2 16 -7 57t-9 63v2zM203 1130l10 -149q0 -14 2 -38.5t2 -39.5 q0 -25 20.5 -36t45.5 -3q8 2 14 6t10 7.5t7 10.5t5.5 10t4.5 11.5t3 11.5t3 13t2 12q0 4 1 11.5t1 11.5q10 139 -19 243q0 4 -3 6q-1 3 -3 5q-27 35 -61 16q-18 -6 -33 -27q-16 -25 -12 -79v-3zM229 -2q-10 0 2.5 41t31 90t20.5 55q35 111 65 181q14 51 193 532 q18 47 44.5 134t32.5 104q4 6 19.5 50t39 120.5t42.5 146.5q31 -6 139.5 -2t130.5 -14q-4 -8 -7 -18.5t-5 -18.5q-6 -23 -90 -297q-6 -20 -36 -101t-44 -124q-6 -16 -62.5 -186.5t-89.5 -258.5q-29 -82 -45 -123l-116 -295q-2 -6 -7 -10q-14 -2 -35.5 -2t-83 -1t-137.5 -3 h-2zM743 401l5 52q2 10 5 43.5t6 50t10 43t17.5 46t26.5 36.5q61 76 152 78q96 4 154.5 -58.5t76.5 -154.5q10 -74 8 -119q4 -86 -16.5 -167t-79.5 -142.5t-147 -57.5q-55 4 -99 27q-78 51 -100 149q-2 16 -7 57.5t-10 63.5v2zM905 481l10 -149q2 -12 2.5 -39t2.5 -39 q0 -25 20.5 -36t44.5 -3q8 2 14.5 6t10.5 7t7 10.5t5 10.5t4 11t3 11t3 13.5t2 12.5q0 4 1 11t1 11q10 139 -18 244l-4 4q-2 2 -2 6q-27 35 -62 17q-18 -6 -32 -27q-16 -25 -13 -80v-2z" />
<glyph unicode="&#x26;" horiz-adv-x="1179" d="M49 451q0 197 205 389q-158 211 -158 348q0 127 122 218t274 91q154 0 253 -92t99 -219q0 -16 -2 -31.5t-6.5 -33t-8.5 -30t-13 -31t-12 -26.5t-15.5 -28.5t-16.5 -25.5t-18.5 -27.5t-16.5 -26.5q-43 -63 -47 -72q-14 -20 -14 -27l-1 -8q-1 -8 0 -15t2 -20.5t7 -30 t15.5 -36t25.5 -45t37 -54.5q20 33 20 82q12 94 119 95h145q39 0 57.5 -15.5t18.5 -60.5q0 -80 -59 -219v2q-8 -23 -17 -43q-4 -4 -10 -18.5t-10 -20.5q-35 -74 -35 -82t7.5 -18.5t22.5 -29t23 -28.5v2q90 -113 103 -176v-18l-2 -11q-16 -61 -156 -61h-10q-82 0 -125 13.5 t-98 66.5q-102 -70 -293 -80q-190 0 -301 137t-111 316zM360 410q14 -125 134 -125q12 0 55 6q51 18 51 24q0 4 4 34t6 59.5t-4 67.5t-21.5 63.5t-53 41t-93.5 7.5q-37 -4 -61.5 -65.5t-16.5 -112.5zM403 1182q0 -43 23 -100.5t41 -53.5v-2q66 10 65 197q1 43 -40 43 q-88 0 -89 -84z" />
<glyph unicode="'" horiz-adv-x="358" d="M66 940v2q0 420 4 496v4h2q4 0 65.5 6t98 7t57.5 -9q0 -51 2 -271.5t2 -232.5h-45q-45 0 -104.5 -1t-81.5 -1z" />
<glyph unicode="(" horiz-adv-x="643" d="M49 416q14 330 12 444v49q0 41 1 91.5t2.5 94.5t12.5 91t34 86q94 180 307 184q82 -4 149 -12l2 -2q6 -43 0 -252q-168 -49 -188 -164q-10 -29 -12 -53q-10 -49 -25 -195q0 -23 -1 -109.5t3 -144t19 -108.5q29 -66 89 -108t121 -44h3v-10q-4 -37 -4.5 -119t-2.5 -117 q-14 -18 -86 -18h-34q-74 4 -134 23q-61 22 -112 61q-41 31 -78 80q-2 2 -8 14q-57 104 -70 238z" />
<glyph unicode=")" horiz-adv-x="643" d="M63 254v10h3q61 2 121.5 44t88.5 108q14 51 18.5 108.5t3.5 144.5t-1 109q-14 145 -25 195q-2 25 -12 53q-20 115 -188 164q-6 209 0 252l2 2q66 8 149 12q213 -4 307 -184q23 -39 34 -86t12.5 -91t2.5 -94.5t1 -91.5v-49q-2 -115 12 -444q-12 -133 -70 -238 q-6 -12 -8 -14q-37 -49 -78 -80q-51 -39 -112 -61q-59 -18 -134 -23h-34q-72 0 -86 18q-4 35 -4 117t-3 119z" />
<glyph unicode="*" horiz-adv-x="757" d="M39 1255q10 4 86 81t92 89l2 2q6 -2 41 -33.5t74 -67.5t47 -42l152 140l172 -173q-4 -27 -65.5 -87t-70.5 -81q6 0 73 -79.5t71 -81.5q2 -10 -10.5 -24.5t-30 -30t-19.5 -19.5l-133 -107q-3 -3 -6 0q-27 35 -39 39q-94 94 -108 101q-12 -6 -64.5 -57.5t-71.5 -63.5 q-8 -8 -14 -8q-139 131 -176 161q8 12 31.5 39t58.5 64t51 55q2 2 -2 10q-8 16 -72.5 89t-68.5 85z" />
<glyph unicode="+" horiz-adv-x="884" d="M27 786q10 -2 128.5 7.5t131.5 13.5q0 14 4 129q2 23 5 59.5t3 40.5q2 8 4 19.5t2 17.5q0 -14 143.5 -10t153.5 2q0 -242 4 -254q27 -2 120 -2t128 -6q-2 -47 -2 -144.5t-6 -152.5q-6 -4 -118 -5t-126 -9q4 -27 -5 -133.5t-9 -116.5v-4q-12 -8 -78 -7.5t-146.5 2.5 t-84.5 0q-2 2 -3 7q-6 45 -4 100t0 109q0 37 -4 40h-4q-37 0 -125 6.5t-102 14.5q-2 2 -2 4q2 41 0 93t-5 114.5t-3 64.5z" />
<glyph unicode="," horiz-adv-x="350" d="M43 8q0 57 8 236v2h2q25 8 56.5 10t55 0t66.5 -6t68 -6h2l-8 -236h-4l-1 -2q-1 -2 -1 -4q0 -6 -4 -22.5t-4 -22.5l-17 -82q-4 -14 -8 -41t-8 -39q-2 0 -142 4q-4 4 4.5 37t20.5 82t16 80l-96 8q-4 0 -6 2z" />
<glyph unicode="-" d="M63 414q0 37 3.5 181t3.5 146h907q0 -39 -2 -108.5t-1 -126.5t9 -107h-2q-23 0 -459 7.5t-459 7.5z" />
<glyph unicode="." horiz-adv-x="385" d="M64.5 77q-1.5 48 1 102t2.5 61q39 16 134 16t122 -12l-3 -53q-3 -52 -6.5 -111.5t-3.5 -75.5v-2v-2h-4l-231 2h-6q-4 27 -5.5 75z" />
<glyph unicode="/" horiz-adv-x="806" d="M33 -2q-10 0 2 41t30.5 90t20.5 55q35 111 66 181q14 51 192 532q18 47 45 134t33 104q4 6 19.5 50t39 120.5t41.5 146.5q31 -6 139.5 -2t131.5 -14q-4 -8 -7.5 -18.5t-5.5 -18.5q-6 -23 -90 -297q-6 -20 -35.5 -101t-44.5 -124q-6 -16 -62 -186.5t-89 -258.5 q-29 -82 -45 -123l-117 -295q-2 -6 -6 -10q-14 -2 -36 -2t-83 -1t-137 -3h-2z" />
<glyph unicode="0" horiz-adv-x="1058" d="M58 858q-1 100 25 211t83 197q10 16 20 26q137 154 318 162q197 6 318.5 -124t158.5 -320q25 -147 16 -246q6 -127 -18.5 -258t-79.5 -250t-159.5 -189.5t-241.5 -62.5q-76 2 -144 27q-80 29 -136 82t-85 105t-44 138t-19 139.5t-7 149.5q-4 113 -5 213zM373 918 q-25 -289 18 -447q4 -8 11.5 -35.5t12.5 -42t19 -29t37 -18.5q45 -14 76 -4q57 16 84 98q10 31 14 60.5t6 76t4 62.5q14 346 -57 451q-47 59 -125 32q-43 -10 -70 -55q-16 -25 -30 -149z" />
<glyph unicode="1" horiz-adv-x="733" d="M12 1001q6 59 115 246t133 211q127 4 186 4q117 0 216 -8q10 -145 10 -344q0 -156 -11.5 -465t-11.5 -465q0 -96 2 -143q0 -37 -125 -37q-72 0 -200 14v2v199q0 133 12 393t12 393q0 23 -2 37q-8 2 -18.5 -15t-18.5 -38.5t-22.5 -40t-28.5 -18.5q-27 0 -137.5 29.5 t-110.5 45.5z" />
<glyph unicode="2" horiz-adv-x="1026" d="M66 4q4 49 5 169t14 196.5t52 142.5q76 84 232.5 179t203.5 134q53 35 68.5 102.5t-13 125t-89.5 65.5q-39 0 -67 -17.5t-43 -40t-24.5 -61t-12.5 -64.5t-5 -65v-4h-2q-193 -23 -303 -10h-2v4q-51 299 102 473q51 66 166 97.5t229.5 25.5t190.5 -37q176 -90 201 -342 q6 -150 4 -184q-8 -104 -73.5 -178t-143.5 -109t-171 -86t-141 -108q-43 -111 -22 -119q57 -4 254.5 0t251.5 4q18 -47 14 -197q0 -76 4 -90q0 -2 -8 -2l-778 -10h-92q-2 2 -2 6z" />
<glyph unicode="3" horiz-adv-x="974" d="M41 1133.5q2 31.5 12 58.5q29 94 111 158.5t186.5 85t212 12.5t196.5 -54t130 -118q33 -53 29 -148q8 -330 -5 -677q-2 -18 -3 -59.5t-3 -64t-9 -55t-19 -59.5q-61 -143 -205 -190q-135 -41 -334 -15q-8 2 -113 29q-59 16 -96 53q-57 57 -68 146q-6 33 -10 102.5 t-8 107.5q0 2 2 3h2q39 -2 127 10t139 8h2l2 -2q16 -51 67.5 -89t107 -40t100.5 51q27 41 17.5 94.5t-50.5 83.5q-80 57 -225 27q-20 18 -13 138t3 144v3q27 10 110.5 10t130.5 24.5t43 102.5q-2 86 -67.5 103.5t-135 -20.5t-92.5 -96q-29 -4 -270 -4v4q0 12 -3 56.5t-1 76z " />
<glyph unicode="4" horiz-adv-x="958" d="M23 694q16 25 64 114t147.5 258t234.5 370q0 2 2 2q4 0 85 2t139.5 3t97.5 -1h4l-2 -77q-2 -77 -5.5 -180.5t-6.5 -218t-3 -191t2 -101.5l13 2q8 4 63 0t62 -4l-13 -297q-23 -8 -63.5 -5t-61.5 -1l-3 -42q-19 -294 -25 -319q-4 -6 -17.5 -9t-41 -4t-54.5 -1h-83h-99 q-2 2 3 96t12 193.5t7 103.5q-12 4 -121.5 4t-212 1t-104.5 5q-29 86 -20 297zM266 672l271 -2l6 438q-6 38 -240 -371q-32 -56 -37 -65z" />
<glyph unicode="5" horiz-adv-x="1015" d="M47 1425h2l226 6q226 5 402.5 8t244.5 -1q4 0 3 -49.5t-3 -102.5t-4 -102l-3 -49q-104 -14 -559 -15h-2v-4v-2l1 -2q1 -2 1 -4q2 -8 4 -33.5t9 -36.5l2 -2l2 -2h2q117 23 215 4q96 -14 166.5 -67t109.5 -130t61.5 -173.5t20.5 -195.5t-12 -198q-20 -92 -95 -160.5 t-173.5 -100t-209 -30.5t-201.5 34.5t-150.5 112.5t-57.5 189q0 53 12 119v4l291 11v-2l1 -5l1 -4q8 -72 43 -101.5t86 -16.5q90 16 124 103t1 176t-110 114q-66 12 -231 4t-212 -4q-4 0 -4 2q0 137 -2 358t-2 348z" />
<glyph unicode="6" horiz-adv-x="1067" d="M77 682q-5 168 11 319q0 8 3 72t13 96q4 18 11 29q51 117 191 184.5t296 67.5q188 4 292.5 -141.5t57.5 -315.5q-47 -8 -147 -10t-123 -4h-4v2q-4 96 -47 141q-31 31 -75 30t-75 -32q-45 -39 -56 -110.5t-3 -188t6 -153.5v-2q57 31 104 45q158 39 248 14q86 -27 142 -88 q53 -51 69 -172l4 -49q16 -156 -69.5 -259.5t-220 -139t-291.5 -19.5q-131 23 -210 127t-100.5 246.5t-26.5 310.5zM522 373q13 -37 45 -56q61 -29 125 7q51 25 60 67v19v4v4q0 20 -2 26q-14 57 -66 66q-94 14 -152 -61q-23 -39 -10 -76z" />
<glyph unicode="7" horiz-adv-x="985" d="M51 14q66 141 256.5 532.5t282.5 602.5q-381 24 -522 18h-5q4 37 11 279v2q20 0 207.5 5t257 5t200.5 -2t226 -12v-2q-4 -27 -1 -142.5t3 -142.5q-94 -217 -317.5 -618.5t-287.5 -524.5q-25 0 -93 -5t-124.5 -5t-93.5 10z" />
<glyph unicode="8" horiz-adv-x="1105" d="M121 419q6 183 129 302q-104 109 -111.5 279.5t88 306t254.5 143.5q162 6 237 -2t138 -45q6 -4 17.5 -12.5t17.5 -12.5t15 -13l18 -17q8 -9 18 -24t23 -34q20 -35 30 -78q12 -49 21 -104q4 -29 4 -37v-8v-12v-37q0 -39 -8 -64q-35 -147 -150 -241v-2q96 -72 132 -188 t9.5 -230.5t-100.5 -196.5q-68 -80 -208 -106.5t-278 9.5t-202 122q-100 119 -94 302zM454.5 467.5q-12.5 -74.5 51.5 -102.5q45 -18 117 -7q23 6 30 15q8 4 27 37q2 4 4 9t3 10t1 7l1 4q1 4 1 9q0 16 -2 22q-12 43 -35 61q-55 47 -125 33q-61 -23 -73.5 -97.5zM471 1032 q-6 -49 18.5 -91t77.5 -46q71 -5 94 65q22 66 -23 107q-36 33 -101 16q-14 -4 -17 -6q-6 -2 -24 -16q-2 -2 -6.5 -5t-7.5 -6t-6 -6.5t-3 -5.5q-2 0 -2 -2v-4z" />
<glyph unicode="9" horiz-adv-x="1001" d="M42 997.5q-7 141.5 32 227.5q29 51 45 69q125 147 389 158q18 0 68.5 -1t74 -3t65.5 -8t67.5 -17.5t53 -33t48.5 -52.5q31 -45 46 -112.5t18 -119.5t5 -140l4 -303q6 -240 3 -269q-25 -168 -103 -276q-82 -98 -238.5 -120t-306 30.5t-219.5 154.5q-72 104 -49 262v11 q29 0 104.5 5t110.5 5t107 -6q12 -43 48 -72t81 -25q123 14 108 252l-2 2q-139 -55 -279.5 -8t-218.5 166q-55 82 -62 223.5zM395 1032q4 -47 15 -76v-2q29 -61 105.5 -65t107.5 47l7 14q3 6 5 11q4 6 4 12t4 14q2 6 2 27q4 61 -59.5 94t-126.5 2q-63 -27 -64 -78z" />
<glyph unicode=":" horiz-adv-x="387" d="M64.5 77q-1.5 48 1 102t2.5 61q39 16 134 16t122 -12l-3 -53q-3 -52 -6.5 -111.5t-3.5 -75.5v-2v-2h-4l-231 2h-6q-4 27 -5.5 75zM64.5 765q-1.5 48 1 102.5t2.5 60.5q39 16 134 16t122 -12l-3 -52q-3 -52 -6.5 -111.5t-3.5 -76.5v-2v-2h-4l-231 2h-6q-4 27 -5.5 75z" />
<glyph unicode=";" horiz-adv-x="360" d="M46 765q-1 48 1 102.5t2 60.5q39 16 134.5 16t121.5 -12l-3 -52q-3 -52 -6 -111.5t-3 -76.5v-2v-2h-4l-232 2h-6q-4 27 -5 75zM47 8q0 57 8 236v2h2q25 8 56.5 10t55.5 0t67 -6t67 -6h2l-8 -236h-4l-1 -2q-1 -2 -1 -4q0 -6 -4 -22.5t-4 -22.5l-17 -82q-4 -14 -8 -41 t-8 -39q-2 0 -141 4q-4 4 4 37t20 82t17 80l-97 8q-4 0 -6 2z" />
<glyph unicode="&#x3c;" horiz-adv-x="727" d="M8 553q45 57 109.5 126t150.5 156t125 126q82 86 117 120q25 -14 79 -69.5t77 -71.5q-39 -49 -173.5 -187.5t-187.5 -205.5q55 -49 181 -174.5t198 -182.5l-22 -20l-33 -33q-55 -55 -105 -98l-2 2q-27 27 -225.5 208t-288.5 304z" />
<glyph unicode="=" horiz-adv-x="915" d="M63 244q0 33 3.5 154.5t3.5 125.5h776q0 -33 -2 -93t-1 -109.5t9 -90.5h-2q-20 0 -393.5 6.5t-393.5 6.5zM63 668q0 33 3.5 154.5t3.5 125.5h776q0 -33 -2 -93t-1 -109.5t9 -90.5h-2q-20 0 -393.5 6.5t-393.5 6.5z" />
<glyph unicode="&#x3e;" horiz-adv-x="729" d="M45 190q72 57 198 182.5t181 174.5q-55 66 -187.5 204t-173.5 189q23 14 76.5 70.5t79.5 70.5q35 -35 117 -120q39 -39 125 -126t150.5 -156t109.5 -126q-92 -121 -283.5 -297t-230.5 -215l-2 -2q-49 43 -105 98l-32 33z" />
<glyph unicode="?" horiz-adv-x="919" d="M23 1020v2q8 162 121.5 290t281.5 136q193 16 329 -102.5t115 -298.5q-12 -113 -96 -218q-23 -31 -62.5 -72.5t-60.5 -68.5q-72 -100 -100 -250q-14 -49 -8 -69v-2q-45 -6 -126 -4t-126 -1h-2q-8 9 -8 46l4 77q27 166 80 244q14 27 53 78t66.5 93t48 89t5 83t-70.5 56 q-43 23 -74 9.5t-44 -36t-33.5 -50t-43.5 -35.5q-59 -4 -83.5 -3t-83 4t-82.5 3zM277.5 77q-1.5 48 1 102t2.5 61q39 16 134 16t122 -12l-3 -53q-3 -52 -6.5 -111.5t-3.5 -75.5v-2v-2h-4l-231 2h-6q-4 27 -5.5 75z" />
<glyph unicode="@" horiz-adv-x="1134" d="M55 770v61q4 250 103 377q86 109 299 135q31 6 104.5 6.5t169.5 -14.5q127 -16 219 -102q57 -51 88 -139t36 -151.5t5 -164.5v-110q0 -109 -12 -185q-14 -78 -74.5 -122t-148.5 -46q-39 0 -84 27q-23 23 -37 41q-68 -55 -166 -55q-106 0 -174 73q-63 74 -59 244 q3 132 86 227q33 43 107.5 76t152.5 33q74 0 121 -31l6 -4q23 -27 20 -69q0 -8 -1 -28t-1 -32q-2 -35 -2 -119q0 -205 43 -213q14 10 23.5 69.5t9.5 100.5q2 45 -2 123v58q-12 227 -146 301h2q-45 23 -147 34q-33 4 -55 5q-129 0 -203 -74q-37 -39 -57.5 -104.5 t-24.5 -109.5t-8 -126q-2 -31 -2 -92q0 -137 20 -258q27 -174 117 -232q66 -39 203 -39q12 0 32.5 1t28.5 1h-2q150 10 352 111l78 -168q-59 -37 -144 -73t-140 -44q-72 -16 -203 -16q-74 0 -142 6q-180 25 -274 150q-37 53 -67.5 141t-34.5 149q-14 244 -15 371zM498 586 q0 -37 26.5 -55.5t61.5 -2.5q55 23 55 127q0 127 10 127q-96 10 -125 -47q-28 -45 -28 -143v-6z" />
<glyph unicode="A" horiz-adv-x="950" d="M33 4q2 6 41 231.5t112.5 566.5t159.5 632q29 4 42 2q7 -1 25 -1q17 0 47 1q60 2 138 8q150 -647 168 -725l154 -717v-2q-52 -11 -110 -11q-77 0 -165 19h-2q-14 39 -45 165t-51 169q-7 6 -39 6q-12 0 -28 -1q-56 -3 -60 -3q-16 -39 -41 -166t-49 -176l-6 -2 q-18 -1 -31 -1h-13q-16 1 -90.5 2t-152.5 1q-2 0 -4 2zM406 586h151q-49 424 -76 429h-1l-19 -40q-6 -24 -55 -389z" />
<glyph unicode="B" horiz-adv-x="993" d="M66 712q2 256 2 432t-2 273l2 2q104 29 210 40q47 5 95 5q59 0 121 -8q110 -14 195 -57t138.5 -135.5t53.5 -223.5q0 -152 -101 -319q-9 -18 11 -43q31 -37 38 -46t32.5 -44t31.5 -50.5t21.5 -49t18.5 -59.5t3 -60.5t-6 -71.5q-12 -70 -43 -124t-69 -87t-97 -54.5 t-109 -29.5q-52 -8 -126 -10q-37 -1 -68 -1q-30 0 -56 1q-50 2 -128 6l-117 6q-35 0 -45 4q-7 138 -7 438q0 120 1 266zM348 1000q-1 -22 -1 -42q0 -68 11 -98q42 -5 77 -5q126 0 161 67q27 48 27 84q0 21 -9 38q-31 59 -100 76q-50 9 -88 9q-49 0 -76 -15q1 -5 1 -19 q0 -28 -3 -95zM356 575q-24 -96 -24 -165q0 -77 30 -121l5 -2q6 0 45 -1q20 -1 33.5 -0.5t21.5 0.5q16 1 46 5t49.5 16.5t35.5 30.5q23 31 23 72q0 36 -17 79q-29 55 -88 70q-31 8 -90 11t-70 5z" />
<glyph unicode="C" horiz-adv-x="1079" d="M55 1100q-2 13 -2 26q0 51 25 111q37 109 112 178q41 31 105 47q77 25 156 25q33 -1 67 -5q114 -14 200.5 -69t151 -140t78.5 -191q4 -31 5 -62q0 -77 -25 -158q-48 -11 -110 -11q-82 0 -189 19q-4 23 -6 70t-6.5 77t-16.5 62.5t-41 48.5q-26 15 -64 15h-10 q-84 -15 -102 -33q-6 -4 -12 -27q-4 -8 -9.5 -116.5t-6.5 -236.5v-28q0 -111 7 -202q16 -160 117 -189q12 -1 22 -1q88 0 124 73q18 37 20 108.5t6 94.5q19 -3 74 -3q27 0 63 1h28q85 0 110 -11q21 -77 21 -151q0 -66 -17 -127q-35 -131 -146.5 -223t-257.5 -95 q-42 -6 -84 -6q-60 1 -118 13q-99 20 -175.5 88.5t-87.5 177.5q-9 173 -9 470q0 170 3 380z" />
<glyph unicode="D" horiz-adv-x="987" d="M80 954q2 148 2 261.5t-2 191.5l4 4q2 2 2 4q70 17 153 21q50 3 107 2q38 0 79 -1q62 -2 105 -2q29 0 50 1q66 -16 126 -63.5t97 -108.5q84 -131 123 -301q14 -43 18 -129q-2 -31 -4 -95.5t-4 -101.5t-7 -91t-14 -97q0 -2 -1 -2.5t-1 -2.5q-68 -195 -260 -434 q-180 -6 -538 -6l-2 -2q-27 193 -32 424q-3 128 -3 277q0 119 2 251zM371 985q3 -49 3 -145q0 -48 -1 -107t-1 -110q0 -101 3 -168q20 -18 74 -18q28 0 65 5q6 0 37 13q32 20 63 65q58 88 58 183q0 36 -8 73q-10 53 -21.5 89t-40.5 76t-72 54q-41 6 -76 6q-42 0 -77 -8h-4 h-2v-8z" />
<glyph unicode="E" horiz-adv-x="1003" d="M74 971.5q0 230.5 12 439.5q240 13 543 17q101 2 169 1q135 0 136 -6q6 -43 6 -91t-3 -107.5t-3 -91.5v-3q-88 -21 -233 -21q-16 1 -32 1q-49 1 -93 0q-105 0 -179 -4h-6l-2 -2q0 -14 -5 -123q-1 -32 -1 -55q0 -56 8 -62l2 -2l252 -6v-2q8 -6 8 -85q0 -24 -1 -54 q-3 -131 -3 -146q-43 -12 -138 -12t-110 -10q-8 -44 -8 -108t8 -148l2 -2q69 0 251 -7q115 -4 200 -4q48 0 86 1v-5q4 -50 4 -94q0 -103 -20 -174q-96 0 -268.5 -3t-313.5 -3t-258 10q0 156 -5 443.5t-5 518z" />
<glyph unicode="F" horiz-adv-x="999" d="M61 4q0 229 2.5 640t2.5 747v2q142 25 424 33q50 1 98 1q221 0 393 -30v-303q-41 -2 -245 -12.5t-302 -20.5q-21 -48 -20 -92q0 -48 24 -92q2 -2 4 -3q56 -7 120 -7t138 7q6 -17 6 -87q0 -25 -1 -59q-1 -46 -1 -85q0 -63 3 -104q-1 -4 -7 -4q-41 -6 -131 -14.5 t-131 -16.5h-2q-12 -139 -16 -502q-84 -8 -210 -8t-147 8z" />
<glyph unicode="G" horiz-adv-x="999" d="M55 852q4 166 21 268q27 170 121 236q68 57 198 76q50 6 96 6q178 0 301 -94q132 -101 132 -289q0 -33 -4 -70l-2 -12q-4 -6 -66 -8q-143 0 -193 6q-51 170 -139 170q-19 2 -39 2q-14 0 -29 -1q-36 -3 -57 -24q-10 -10 -22 -55q-29 -94 -37 -267q-3 -63 -3 -123 q0 -105 9 -200q14 -139 68 -182q18 -12 47 -19q13 -2 26 -2q45 0 101 21q51 23 63 74q6 25 9 67.5t-7 54.5q-7 1 -26.5 1t-50.5 -1h-26q-40 0 -48 5q-4 43 -4 104t-5 111v2q0 2 2.5 2t4.5 2q31 18 118 20h40q71 0 152 -5q105 -7 109 -7h5l2 -2q16 -143 16 -258.5t-16 -204.5 q-18 -178 -195 -244q-153 -44 -269 -44q-95 0 -165 30q-78 35 -122 92t-71 150q-14 55 -24 143q-22 228 -22 397q0 37 1 72z" />
<glyph unicode="H" horiz-adv-x="1005" d="M70 1430v2h2h4q21 -4 57 -4q32 0 75 3q33 2 58 2q47 0 70 -8q10 -82 17 -263t26 -275h2q24 -6 73 -5q57 0 148 7h2q12 149 12 320q0 103 -4 214q81 26 197 26q40 0 83 -3l56 -1434q-55 -10 -161.5 -10t-124.5 -2h-3q-14 94 -17 287.5t-13 277.5l-2 2q-57 11 -111 11 q-64 0 -127 -15q-5 -52 -4 -146q0 -59 1 -135q1 -52 1 -94q0 -121 -10 -174q-25 -13 -82 -13q-29 0 -65 3q-50 5 -81 5q-38 0 -51 -7q-14 190 -24 662q-6 283 -7 502q0 146 3 264z" />
<glyph unicode="I" horiz-adv-x="507" d="M76 -8q10 133 10 350q0 168 -6 390q-5 177 -5 317q0 261 17 397v4q3 1 11 1q11 0 32 -2q35 -3 41 -3q170 -6 225 -6h50v-8q0 -160 -6.5 -474.5t-7.5 -477.5v-24q0 -161 12 -446q-6 -22 -120 -22q-27 0 -61 2q-107 4 -156 4q-29 0 -36 -2z" />
<glyph unicode="J" horiz-adv-x="960" d="M20 590q58 14 132 14q83 0 186 -18v-2v-11q16 -227 123 -233q12 -3 23 -3q41 0 65 35q31 44 37 111q-7 340 -7 594q0 211 5 363v14l299 4v-63q0 -122 5 -326q4 -167 4 -281q0 -66 -1 -114q-2 -25 -3 -98.5t-4 -111.5t-10.5 -104.5t-23.5 -107.5t-40 -88t-63.5 -79 t-93.5 -52q-102 -50 -228 -50q-73 0 -155 17q-80 23 -134 88.5t-78.5 154.5t-33.5 174q-5 58 -5 117q0 28 1 56z" />
<glyph unicode="K" horiz-adv-x="993" d="M76 718q10 593 10 714q19 1 43 1q43 -1 103 -3q94 -4 128 -3q3 -52 3 -144q0 -45 -1 -101q-1 -48 -1 -89q0 -101 4 -157q0 2 10 12q59 78 146 242t141 240q16 -1 51 -1t88 1h36q76 0 103 -7q-37 -129 -174 -364.5t-174 -323.5l350 -727q-31 -6 -71 -8q-27 -1 -49 -1h-20 q-30 1 -77 3t-68 2q-68 78 -167 291t-115 244q-2 -40 -2 -101q0 -76 3 -186q5 -197 5 -242q-55 -13 -138 -13h-13q-92 1 -148 13q-10 71 -10 323q0 157 4 385z" />
<glyph unicode="L" horiz-adv-x="946" d="M61 -2v37q16 648 16 713q0 11 -9 692q37 17 143 17h13q116 -1 171 -23q-3 -88 -3 -246q0 -132 2 -310q4 -281 4 -442q0 -65 -1 -110v-2q11 3 54 3q67 1 213 -7q180 -9 239 -10q19 0 25 1q0 -31 -2 -45q-3 -37 -3 -60q0 -12 1 -20q4 -76 5 -110v-7q-1 -27 -7 -45 q-8 -20 -14.5 -22t-28.5 -2h-9q-9 1 -31 1q-23 0 -57 -1q-70 -2 -230 -5q-54 -1 -126 -1q-145 0 -365 4z" />
<glyph unicode="M" horiz-adv-x="993" d="M70 1405q8 12 93 12q18 0 40 -1q74 -2 111 -2q25 0 34 1h2q29 -31 73 -155.5t62 -153.5q6 -6 13 -6q4 -2 13 24.5t21.5 67.5t26.5 85t29.5 84t29.5 58q16 -1 35.5 -1t41.5 1q44 2 119 5t108 3q-2 -55 -2 -137q0 -103 3 -251q2 -102 2 -183q0 -129 -5 -205l-7 -653 q-37 4 -86 5h-34q-35 0 -75 -1q-60 -2 -75 -2q-2 37 -7 349.5t-22 447.5q-14 -23 -41.5 -99.5t-52 -138t-35.5 -61.5q-8 0 -19 16t-23.5 42t-23.5 56.5t-22.5 60t-19.5 55.5t-13 40l-6 14q-11 -127 -11 -292q0 -211 18 -484q-39 -6 -87 -8q-24 -1 -52 -1t-62 1q-68 2 -86 2 q-3 0 -6 6q-7 23 -7 438q0 345 5 961z" />
<glyph unicode="N" horiz-adv-x="983" d="M63 885q0 326 19 549q35 8 92 8q39 0 104.5 -6t65.5 -15q20 -53 52 -114.5t55 -114.5q14 -35 90.5 -188.5t81.5 -153.5q14 10 14 113q0 55 -3 152t-3 144.5t4 182.5q71 12 147.5 12t135.5 -12v-660q2 -115 2 -350q0 -41 -1 -115.5t-1 -111.5q0 -29 1 -82t1 -82v-41 q-31 -10 -68 -10q-29 0 -94.5 5t-93.5 5q-27 57 -85.5 185t-96.5 216t-66 166l-21 62q-20 61 -26 61q-14 0 -15 -520q0 -123 2 -170q-39 -10 -90 -10q-33 0 -99.5 6t-96.5 6v143q0 131 -3.5 372t-3.5 368z" />
<glyph unicode="O" horiz-adv-x="989" d="M60 820q1 91 6 167q4 229 108 350q25 25 47 37q118 60 267 60h38q172 -8 287 -97q59 -53 84 -125q20 -47 33 -127q5 -56 5 -127q0 -36 -1 -75q-4 -68 -4 -207t-6 -213l-6 -68q-10 -168 -78 -276q-61 -84 -211 -125q-77 -23 -171 -23q-30 0 -63 2q-100 8 -168.5 39 t-101.5 105q-45 78 -49 227q-2 41 -7.5 154.5t-7.5 171.5q-1 39 -1 93v57zM285 637q2 -18 12 -127t27 -162q39 -82 142 -90q10 -1 20 0q89 0 147 64q18 25 26.5 43t9.5 29.5t2 46t3 67.5q0 23 1 49.5t2 40.5t1 16v99l-4 139l-2 19q-2 19 -4 48t-2 50q-10 127 -107 174 q-28 11 -56 11l-104 -40q-72 -57 -96 -141q-21 -98 -21 -230q0 -51 3 -106z" />
<glyph unicode="P" horiz-adv-x="991" d="M61 1423q135 37 284 37t290 -37t237.5 -144t104.5 -273v-2q0 -37 -2 -54q-25 -196 -195 -320q-134 -98 -284 -98q-40 0 -80 7q2 -31 2 -71t1 -157.5t5 -285.5v-2q-3 -1 -6 -3q-53 -14 -165 -15h-24q-95 0 -153 7q-7 177 -7 580v104v95q0 415 -8 632zM360 1137 q3 -37 3 -71q0 -16 -1 -34t-1 -38q1 -34 3 -70q4 -58 15 -95h6q14 0 66.5 2.5t79 5.5t64.5 16t60 36q28 35 28 82q-1 13 -3 27q-10 64 -62 94q-72 58 -165 58q-41 0 -86 -11q-4 0 -7 -2z" />
<glyph unicode="Q" horiz-adv-x="1021" d="M68 496v67v66v97v112q0 34 2 105t7 116t14 102.5t22 104.5q29 86 142.5 141t268.5 55q162 0 240 -39t141 -190q59 -186 60 -479q0 -131 -7 -213q-2 -23 -3 -65t-4 -75.5t-11 -62.5q-4 -37 -10 -53q-10 -41 -47 -125q39 -47 39 -62q0 -27 -12.5 -41t-43.5 -37 q-56 -36 -86 -36h-2q-12 0 -36.5 22.5t-39.5 42.5q-25 -29 -92 -47q-55 -15 -108 -15q-11 0 -23 1q-174 12 -289 123q-23 20 -40 43.5t-30.5 52.5t-22.5 50.5t-14 58t-9 56t-5 63.5t-1 61zM317 526q0 -41 4.5 -94t14.5 -82q43 -114 182 -114h2q23 0 37 2q-8 8 -23.5 24.5 t-21.5 22.5q-43 51 -43 82q0 18 8 27t29.5 20.5t30.5 17.5q6 4 19 16.5t25.5 19.5t27 7t27.5 -17.5t26.5 -44t27.5 -40.5q2 12 8.5 63t8.5 66q2 20 2 237q0 115 -15 252q-6 80 -46 123t-130 43q-117 0 -146.5 -26.5t-37.5 -131.5q-14 -160 -15 -297q0 -10 -1 -72.5 t-1 -103.5z" />
<glyph unicode="R" horiz-adv-x="1163" d="M61 1432q238 35 404 36q75 0 135 -8q119 -6 217 -69.5t148.5 -157.5t57.5 -208q1 -11 0 -21q0 -103 -60 -199q-86 -168 -267 -178h-8h-2v-2q20 -37 168 -261.5t197 -357.5h2q-15 0 -159 -5q-65 -2 -109 -2q-52 0 -72 3h-2q-147 344 -285 514l-4 6q-4 -35 -4 -108 q0 -133 14 -391q-41 -17 -123 -21q-57 -3 -109 -3q-22 0 -44 1q-36 1 -56 1t-24 -1q8 0 8 328.5t-6 684t-17 419.5zM360 1145q2 -29 4 -123t7 -129h2q64 -6 115.5 -6t91.5 6q76 15 86 109q1 13 1 26q0 74 -51 111q-43 40 -110 40q-63 0 -146 -34z" />
<glyph unicode="S" horiz-adv-x="1126" d="M121 410v6v6q13 7 88 7q31 0 71 -1q140 -4 154 -4q5 -90 96 -121q32 -11 61 -11q48 0 85 31q38 31 38 83q0 14 -3 30q-2 20 -9.5 39t-21.5 33t-26.5 25.5t-35 21.5t-36 15t-42 12.5t-40 9.5t-44 8t-38.5 8q-72 14 -139 70q-90 86 -121 198q-17 61 -17 119q-1 49 11 93 q26 100 95.5 185t166.5 126q87 33 189 32q19 -1 39 -1q124 -8 226 -54q104 -52 154 -156q32 -66 32 -149q0 -47 -10 -100h-2q-90 -15 -165 -15q-80 0 -142 17q3 15 3 28q0 51 -47 85q-44 31 -93 30q-19 0 -38 -4q-71 -16 -81 -88q-4 -14 0 -55q25 -72 133 -88 q109 -12 201 -69.5t154 -145.5q70 -90 77 -214q1 -15 1 -29q0 -107 -46 -198q-47 -121 -155 -180q-101 -55 -223 -55h-17q-123 4 -234.5 52t-183.5 146q-65 89 -66 198q0 12 1 24z" />
<glyph unicode="T" horiz-adv-x="944" d="M38 1236q-1 34 -1 68q0 68 4 134l-1 2l-1 2q129 3 299 3q63 0 132 -1q253 -2 433 -21q4 -67 4 -128q0 -102 -12 -189q-24 5 -86.5 5t-163.5 -5h-4h-2l-1 -2q-1 -2 -1 -4q-2 -13 -2 -120q0 -242 12 -964v-2v-2q-45 -7 -144 -7h-25h-25q-98 0 -142 -7q-1 2 -1 21 q0 27 2 90.5t2 185.5q0 83 -1 191q-2 270 -16 604l-2 2q-37 18 -138.5 20t-107.5 4q-8 16 -11 120z" />
<glyph unicode="U" horiz-adv-x="1015" d="M59 301q1 131 7 508q4 233 4 401q0 103 -2 181l-2 2h2q14 0 86 2q36 1 65 1t53 -1q47 -2 84 -13v-2q-8 -176 -8 -353q0 -323 27 -652q19 -63 75 -84q24 -9 47 -9q32 0 63 16q54 28 67 87q8 186 12 534.5t6 456.5q6 0 66.5 6.5t90.5 8.5q9 1 19 1q24 0 55 -4q45 -4 68 -18 q9 -204 9 -394q0 -359 -33 -667q-18 -139 -105.5 -231t-230.5 -107q-35 -3 -70 -3q-85 0 -167 20q-116 30 -200 112t-88 201z" />
<glyph unicode="V" horiz-adv-x="952" d="M43 1395v2q20 25 141 27q24 0 45 1q82 0 105 -8q6 -31 11 -184.5t27.5 -367.5t69.5 -408q57 240 105.5 549t75.5 409q0 4 4 4q49 -10 149.5 -10t145.5 -8q-100 -535 -340 -1399q-6 0 -51.5 -4t-77.5 -4q-121 0 -170 16q-178 643 -240 1385z" />
<glyph unicode="W" horiz-adv-x="966" d="M51 1423v2q68 10 133 11q12 0 160 -6q6 -70 7 -393.5t36 -461.5q12 47 92 363q4 8 4 10q10 -8 31 -89t45.5 -179t36.5 -131q12 119 19.5 435t17.5 435v2q57 12 145 13q69 -1 137 -7l3 -2q-18 -217 -66.5 -690t-69.5 -725q-12 -4 -69 -4h-74h-25q-25 33 -60.5 172 t-59.5 176h-2q-27 -27 -60 -168t-51 -172q-57 -10 -100 -10q-31 0 -78 6h-2q-4 33 -32 226.5t-36 251t-27.5 219t-27.5 252t-16.5 220.5t-10.5 244z" />
<glyph unicode="X" horiz-adv-x="1009" d="M53 1411q117 8 205 8h28h23h19h15q5 0 10 -2t7 -3t5 -5q111 -385 135 -453q29 66 81 254.5t60 212.5v2q96 8 313 9h2l-1 -2l-1 -2q-20 -66 -76.5 -222.5t-91 -275.5t-53.5 -234q23 -131 97.5 -374.5t93.5 -319.5q-18 2 -54 2q-20 0 -63 -2t-68 -2q-55 0 -90 8l-2 2 q-29 61 -66.5 226t-72.5 233l-2 2q-35 -78 -78 -238.5t-76 -230.5q-61 -4 -96 -4q-131 0 -182 18q20 72 102 318t111 375q-12 57 -29.5 123.5t-30 108.5t-43 126t-39 106.5t-48.5 125t-44 110.5z" />
<glyph unicode="Y" horiz-adv-x="966" d="M55 -2q68 211 269 709v4q-29 119 -129.5 354t-128.5 352q27 0 86 6.5t90 6.5q61 0 96 -17q18 -88 68.5 -228.5t89.5 -219.5q31 55 89 228t77 216q70 14 215 14q44 0 77 -4v-2q-80 -256 -302 -724t-300 -693q-16 2 -51 2q-29 0 -94.5 -3t-98 -3t-49.5 2h-4z" />
<glyph unicode="Z" horiz-adv-x="1026" d="M57 1413q98 9 219 13q85 2 154 3q30 -1 58 -1q90 -2 238 -4.5t228 -2.5q7 -18 7 -85q0 -32 -2 -78q-5 -136 -5 -162v-2q-90 -154 -280.5 -426.5t-245.5 -358.5l-2 -2q98 12 168 16.5t170 5.5t178 5v-6q6 -45 6 -114q0 -88 -10 -214v-4q-229 13 -447 13q-200 0 -391 -11 q-17 52 -17 147v11v64q0 61 -1 106q41 92 110.5 206.5t119.5 186.5t147.5 206t124.5 171q-192 26 -473 26h-21q-16 29 -16 129.5t-13 151.5v2q0 4 -4 8z" />
<glyph unicode="[" horiz-adv-x="653" d="M72 -4v8q4 258 1 474t1 486.5t18 477.5v2q86 12 256 3t244 -1q0 -203 -12 -242h-2h-5q-33 2 -106.5 -3t-110.5 -1h-2q-12 -184 -10 -299t9 -316.5t7 -291.5v-2q33 -8 71 -11.5t83 -5.5t66 -4q12 -178 6 -268l-199 -2q-276 0 -315 -4z" />
<glyph unicode="\" horiz-adv-x="806" d="M14 1436q37 18 131.5 14t139.5 2q18 -70 41.5 -146.5t39 -120.5t19.5 -50q6 -16 32.5 -103.5t45.5 -134.5q178 -481 192 -532q31 -70 66 -181q2 -6 20.5 -55t30.5 -90t2 -41h-2q-78 2 -139.5 3t-83 1t-33.5 2q-4 4 -6 10l-117 295q-16 41 -45 123q-25 66 -50.5 140.5 t-54 163.5t-46.5 141q-14 43 -44 123.5t-36 101.5q-84 274 -90 297q-2 8 -5.5 18t-7.5 19z" />
<glyph unicode="]" horiz-adv-x="651" d="M61 1446q74 -8 244 1t256 -3v-2q18 -272 18.5 -721t2.5 -717v-8q-40 4 -316 4l-198 2q-6 90 6 268q20 2 65 4t83 5.5t71 11.5v2q0 90 7 291.5t9 316.5t-10 299h-2q-37 -4 -110.5 1t-106.5 3h-4h-2q-12 39 -13 242z" />
<glyph unicode="^" horiz-adv-x="901" d="M23 979q41 57 98 118.5t97 100.5t120 110.5t113 102.5l430 -430q-2 2 -45 -5t-105.5 -12.5t-150.5 5.5q-14 0 -67.5 59t-68.5 68q-16 -6 -71.5 -65.5t-67.5 -61.5q-14 -2 -282 10z" />
<glyph unicode="_" horiz-adv-x="1294" d="M63 -86q23 0 582 5t584 5h2q-6 -39 -8 -68.5t-2 -45t1 -51t1 -66.5q-41 0 -328 1t-556 2t-271 1q0 2 -2.5 90t-2.5 127z" />
<glyph unicode="`" horiz-adv-x="522" d="M27 1270l141 143q55 -43 185 -176t157 -158q-33 -8 -120 -11t-154 3q-12 18 -54.5 57t-91.5 83t-61 57z" />
<glyph unicode="a" horiz-adv-x="991" d="M49 545q0 203 99.5 336t244.5 137q63 0 93 -3t64 -24.5t52 -66.5q-2 25 3 58.5t5 45.5q0 2 99 2q143 -6 200 -10q4 -33 4 -49v-21q-2 -50 -2 -135q-1 -117 3 -300q2 -105 2 -189q0 -166 -7 -244v-14v-14v-12q0 -7 -1 -12t-3 -11.5t-5 -10.5t-7 -6t-10 -4h-25q-23 0 -68 3 t-65 3q-16 0 -45 -3t-43 -3q-25 8 -25 45q0 16 4.5 37.5t4.5 34.5q-51 -51 -126 -85t-145 -34q-98 0 -169.5 94t-101.5 214t-30 241zM301 504q0 -94 49 -157.5t133 -63.5q37 0 61.5 11t38 25.5t19.5 49t7 58.5t1 79v24q0 156 -12 182q-19 31 -94 31q-80 0 -129.5 -38 t-61.5 -93q-12 -41 -12 -108z" />
<glyph unicode="b" horiz-adv-x="933" d="M74 2q-2 88 -2 215q0 189 5 463q9 457 9 627v135q41 8 104.5 8t108.5 -3t45 -7v-23q2 -43 5 -81t4 -60q1 -11 1 -33.5t-1 -58.5l-3 -211q8 39 146 52q34 3 67 3q98 0 180 -29q86 -31 126 -145.5t40 -269.5q-2 -72 -5 -118t-12 -111.5t-23.5 -107.5t-40 -89t-60.5 -76 t-86 -50.5t-117 -25.5q-20 -3 -38 -3q-107 0 -152 91q-8 18 -21 -8q0 -16 -1 -35.5t-1 -32t-2 -14.5q-37 -4 -84 -5h-33q-35 0 -75 1q-60 2 -84 2zM342 555q0 -78 4 -122t17.5 -89t44 -65.5t81.5 -20.5q84 0 135.5 80t51.5 188q0 80 -14 119q-23 145 -195 146 q-86 0 -105.5 -38t-19.5 -198z" />
<glyph unicode="c" horiz-adv-x="950" d="M82 662q0 74 12 147q2 18 33 121q27 59 114 89t193 30q18 -1 47 -1h32h32q30 0 49 -1q150 -10 227 -86q12 -8 22.5 -19.5t18.5 -29t13.5 -31t9.5 -39t6 -40t4 -48t3 -49t2 -56.5t1 -57q-28 -6 -73 -6q-72 0 -187 16q-11 76 -61 113q-33 24 -78 24q-23 0 -49 -6 q-43 -12 -70 -45q-12 -10 -18 -41q-6 -47 -8.5 -139t-4.5 -127v-9q0 -52 42 -80q43 -28 96 -28h8q58 2 90 25q29 20 49 108q6 -1 22 -1q33 0 107 3q32 1 56 1q61 0 75 -7q-20 -285 -57 -321q-33 -47 -97.5 -69.5t-110.5 -26.5q-20 -2 -50 -1q-40 1 -96 3q-100 4 -121 4 q-104 18 -177 90q-51 45 -75.5 121.5t-24.5 154.5t-1 164t-5 150z" />
<glyph unicode="d" horiz-adv-x="933" d="M25 584q0 156 39.5 270.5t125.5 144.5q83 29 181 29q33 0 67 -3q137 -13 146 -52l-3 211q0 35 -0.5 58.5t0.5 33.5q1 22 4 60t5 81v23q0 4 45 7t108.5 3t104.5 -8v-135q0 -172 9 -628q5 -274 5 -463q0 -126 -2 -214q-25 0 -85 -2q-40 -1 -74 -1h-33q-47 1 -84 5 q-2 2 -2 14.5t-1 32t-1 35.5q-12 27 -21 8q-45 -91 -152 -91q-18 0 -38 3q-90 6 -153.5 44t-99.5 88t-56.5 132t-26.5 148.5t-8 165.5zM258 526q0 -109 51 -188.5t135 -79.5q94 0 121 70.5t27 226.5q0 160 -19.5 198t-105.5 38q-172 -1 -195 -146q-14 -39 -14 -119z" />
<glyph unicode="e" horiz-adv-x="933" d="M51 582q16 207 45 284q51 117 202 164q83 26 166 26q69 0 138 -18q278 -46 278 -425q0 -40 -3 -83q-45 -12 -263 -20q-87 -3 -150 -3q-95 0 -136 7v-37v-25q0 -20 1 -25t1 -20.5t1 -20.5t3 -17.5t4 -18.5l5 -15q3 -9 7 -17.5t8 -16.5q32 -63 96 -83q19 -6 37 -5 q42 0 77 32q46 43 46 133v15q6 -1 22 -1q32 0 105 3q31 1 55 1q60 0 76 -7q-20 -289 -57 -319q-27 -37 -67.5 -59.5t-96 -29t-98.5 -7.5h-20q-37 0 -91 2q-68 4 -98 4q-57 8 -106 36q-102 72 -148 228q-40 134 -40 285q0 26 1 53zM334 719q-2 -11 -2 -20q0 -18 9 -22 q13 -3 185 -3q41 0 89 -3q13 -1 22 -1q10 0 13 2q5 2 6 17q0 5 -1 9q0 92 -80 133q-33 20 -71 21q-88 0 -125 -35t-45 -98z" />
<glyph unicode="f" horiz-adv-x="823" d="M29 975q104 0 147 -2q-2 22 -2 43q0 104 40 198q48 115 173 156q119 41 298 41q42 0 87 -2q14 -39 14 -108t-14 -168h-12q-53 0 -244 -25q-65 -11 -65 -86q0 -23 6 -53h313q-4 -8 -3 -44t1 -51q0 -55 -10 -161q-256 14 -309 16v-446v-275q-19 3 -47 3q-38 0 -90 -5 q-62 -5 -98 -5q-18 0 -30 1q-8 45 -9 190v76q0 117 2 258q3 187 3 201q-90 0 -145 -2z" />
<glyph unicode="g" horiz-adv-x="962" d="M55 365v91q0 21 3 89.5t8.5 98.5t16.5 89.5t27.5 89t43 71.5t59.5 63.5t80 39t104 21.5q13 1 26 1q134 0 177 -97q8 -4 10 9q1 8 -1 32q-3 46 3 57q41 4 86 5h31q33 0 73 -1q58 -2 87 -2q9 -292 9 -556q0 -294 -11 -554v-48v-50q0 -19 -4 -42.5t-15 -37.5 q-84 -132 -227 -144h-211q-190 0 -295 152q-16 31 -27 85q-7 39 -7 67q0 11 1 20q51 13 118 13h10q73 -1 135 -11q0 -68 54 -102q32 -21 66 -21q23 0 47 9q60 24 76 96q4 51 5 70q0 6 -1 9q-2 17 -2 35t2 37q-18 -20 -50 -32.5t-55.5 -14.5t-68.5 -3t-59 -3q-205 0 -266 129 q-47 88 -58 240zM287 467q0 -104 61 -178q35 -43 98 -55q24 -4 47 -4q36 0 68 12q23 8 36 31.5t16 41t8 52.5q0 225 -27 329q-25 61 -100 70q-12 1 -23 1q-59 0 -98 -36q-68 -78 -82 -166q-4 -19 -4 -80v-18z" />
<glyph unicode="h" horiz-adv-x="911" d="M68 1037.5q0 283.5 4 443.5q36 -3 71.5 -3t71.5 3q6 0 42 5t54.5 5t26.5 -8q2 -11 2 -570q41 23 51 31q88 66 206 71h16q108 0 190 -65q39 -34 45 -200q3 -76 3 -170q0 -108 -4 -238t-4 -218q0 -75 3 -120q-55 -8 -256 -8q-4 61 -4 228t-4 247q0 8 -2 29.5t-3.5 34 t-4.5 33t-6 32.5t-8 27.5t-12 26t-16 16.5q-2 2 -4 2t-4 2q-28 14 -68 15h-3q-38 -1 -78 -29q-41 -30 -45 -97q-1 -26 -1 -65q0 -78 5 -212q3 -73 3 -129q0 -97 -9 -143v-8q-18 -13 -80 -13q-15 0 -33 1q-45 2 -80 2t-61 -2q0 94 -2 427t-2 616.5z" />
<glyph unicode="i" horiz-adv-x="417" d="M68 0q7 97 7 261q1 115 -3 265q-3 120 -3 217q0 193 11 291v2q6 2 29.5 0t27.5 -2q77 -4 144 -4h43h34v-6q0 -98 -5 -335.5t-5 -341t8 -335.5q-2 -15 -94 -15q-21 0 -46 1q-92 3 -127 3q-18 0 -21 -1zM72 1477l278 -7q0 -12 3 -113.5t3 -148.5q-10 -16 -53 -18 q-14 -1 -32 -1q-35 0 -82.5 3t-79.5 3q-16 0 -29 -1q0 29 -5 121q-4 66 -4 120q0 22 1 42z" />
<glyph unicode="j" horiz-adv-x="696" d="M39 -106q22 -2 45 -2q67 0 139 14q96 18 131 69q2 96 2 372.5t6 395.5v275q19 -3 47 -3q38 0 91 5q61 5 97 5q18 0 30 -1q5 -45 5 -144q0 -49 -1 -111q-2 -93 -2 -151t2 -79q0 -49 1 -149.5t1 -155t-3 -135.5t-10.5 -153.5t-19.5 -148.5q-77 -182 -468 -182q-45 0 -93 2 q-13 39 -13 108.5t13 168.5zM350 1477l273 -7q0 -12 3 -113.5t3 -148.5q-10 -16 -51 -18q-14 -1 -31 -1q-33 0 -80 3t-80 3q-16 0 -29 -1q0 29 -5 121q-4 66 -4 120q0 22 1 42z" />
<glyph unicode="k" horiz-adv-x="921" d="M72 748q6 632 6 739q27 0 88 2t110 2t80 -4v-449q0 -31 -2 -90t-2 -103t4 -73q51 45 113.5 149.5t95.5 143.5q9 -12 89 -12q30 0 70 2q110 4 148 4h17q-45 -70 -99.5 -143.5t-130 -173t-108.5 -142.5q29 -45 90 -143.5t97 -155.5t84 -142t85 -159q-23 0 -96.5 -4t-135 -4 t-97.5 8q-31 49 -99.5 188.5t-122.5 206.5q0 -18 3 -109q2 -55 2 -102q0 -32 -1 -60q-2 -71 -12 -124q-9 1 -26 1q-34 0 -102 -3q-40 -2 -71 -2q-46 0 -71 4q-8 77 -8 383q0 154 2 365z" />
<glyph unicode="l" horiz-adv-x="425" d="M76 0q9 123 9 320q1 182 -7 424q-6 192 -7 346q0 252 17 399l279 -6q0 -100 -4.5 -456.5t-5.5 -560.5v-41q0 -188 8 -413q-2 -15 -95 -15q-22 0 -46 1q-92 3 -127 3q-18 0 -21 -1z" />
<glyph unicode="m" horiz-adv-x="1425" d="M68 498q-2 175 -2 292q0 192 6 230q36 -3 71.5 -3t71.5 3q6 0 42 5t54.5 5t26.5 -8q4 -27 4 -63v-46q41 23 51 31q88 66 206 71h16q108 0 190 -65q12 -12 20 -35q45 27 49 29q88 66 206 71h16q108 0 190 -65q39 -34 45 -200q3 -76 3 -170q0 -108 -4 -238t-4 -218 q0 -75 3 -120q-55 -8 -256 -8q-4 61 -4 228t-4 247q0 8 -2 29.5t-3 34t-4 33t-6 32.5t-8.5 27.5t-12.5 26t-15 16.5q-2 2 -4 2t-4 2q-35 16 -68 16q-45 0 -86 -31v-58q0 -101 -4 -277q-3 -117 -3 -197t3 -123q-55 -8 -256 -8q-4 61 -4 228t-4 247q0 8 -2 29.5t-3 34t-4.5 33 t-6.5 32.5t-8 27.5t-12 26t-16 16.5q0 2 -4 2t-4 2q-28 14 -68 15h-3q-38 -1 -78 -29q-41 -30 -45 -97q-1 -26 -2 -65q0 -78 6 -212q3 -73 3 -129q0 -97 -9 -143v-8q-18 -13 -80 -13q-15 0 -33 1q-45 2 -80 2t-61 -2q0 44 -6 504z" />
<glyph unicode="n" horiz-adv-x="937" d="M66 498q-2 175 -2 292q0 192 6 230q36 -3 71.5 -3t71.5 3q6 0 42 5t54.5 5t26.5 -8q4 -27 4 -63v-46q41 23 51 31q88 66 206 71h16q108 0 190 -65q39 -34 45 -200q3 -76 3 -170q0 -108 -4 -238t-4 -218q0 -75 3 -120q-55 -8 -256 -8q-4 61 -4 228t-4 247q0 8 -2 29.5 t-3.5 34t-4.5 33t-6 32.5t-8 27.5t-12 26t-16 16.5q-2 2 -4 2t-4 2q-28 14 -68 15h-3q-38 -1 -78 -29q-41 -30 -45 -97q-1 -26 -2 -65q0 -78 6 -212q3 -73 3 -129q0 -97 -9 -143v-8q-18 -13 -80 -13q-15 0 -33 1q-45 2 -80 2t-61 -2q0 44 -6 504z" />
<glyph unicode="o" horiz-adv-x="958" d="M84 666q0 84 10 147q0 14 6 36.5t15.5 48.5t11.5 36q27 59 114 89t193 30q18 -1 47 -1h32h32q30 0 49 -1q147 -10 227 -88q72 -47 83 -369q1 -24 1 -37q-14 -364 -46 -447q-9 -23 -19 -34q-33 -47 -97.5 -69.5t-110.5 -26.5q-20 -2 -50 -1q-40 1 -96 3q-100 4 -121 4 q-104 18 -177 90q-51 45 -75.5 121.5t-25.5 154.5t-1 164t-2 150zM352 380q0 -53 42 -82q41 -28 93 -28h7q56 2 94 23q35 16 47 67q12 108 12 178q0 49 -6 80q-9 74 -59 106q-31 20 -74 20q-25 0 -55 -7q-43 -12 -70 -45q-12 -10 -18 -41q-7 -49 -9 -140q-1 -31 -2.5 -73.5 t-1.5 -57.5z" />
<glyph unicode="p" horiz-adv-x="929" d="M72 1022q25 0 85 2q40 1 74 1h33q47 -1 84 -5q2 -2 2 -14.5t1 -32t1 -35.5q12 -27 21 -8q45 91 152 91q18 0 38 -3q66 -4 117 -25.5t86 -50.5t60.5 -76t40 -89t23.5 -107.5t12 -111.5t5 -118q0 -156 -40 -270.5t-126 -144.5q-83 -29 -181 -29q-33 0 -67 3 q-137 13 -145 52l3 -211q1 -36 1 -59t-1 -33q-1 -22 -4 -60t-5 -81v-23q0 -4 -45 -7t-108.5 -3t-104.5 8v135q0 170 -9 627q-5 274 -5 463q0 127 2 215zM340 469q0 -160 19.5 -198t105.5 -38q171 1 194 146q14 39 15 119q0 109 -51.5 188.5t-135.5 79.5q-94 0 -120.5 -70.5 t-26.5 -226.5z" />
<glyph unicode="q" horiz-adv-x="929" d="M23 440q2 98 8 165t26.5 149t56.5 132t99 88t154 44q20 3 38 3q107 0 152 -91q8 -18 21 8q0 16 1 35.5t1 32t2 14.5q37 4 84 5h33q34 0 75 -1q60 -2 84 -2q2 -88 2 -215q0 -189 -5 -463q-9 -457 -9 -627v-135q-41 -8 -104.5 -8t-108.5 3t-45 7v23q-2 43 -5 81t-4 60 q0 10 -0.5 33t0.5 59l3 211q-8 -39 -146 -52q-34 -3 -67 -3q-98 0 -181 29q-86 31 -125.5 145.5t-39.5 269.5zM256 498q0 -80 14 -119q23 -145 195 -146q86 0 105.5 38t19.5 198q0 78 -4 122t-17.5 89t-44 65.5t-82.5 20.5q-84 0 -135 -80t-51 -188z" />
<glyph unicode="r" horiz-adv-x="743" d="M66 498q-2 175 -2 292q0 192 6 230q36 -3 71.5 -3t71.5 3q6 0 45 3q40 3 60 4h5q16 0 23 -5q0 -23 1 -37.5t1 -32.5q14 8 96 39q47 15 120 23q65 8 104 7h9q40 -1 50 -3v-361l-18 7q-8 4 -22.5 8t-20.5 6q-57 14 -78 14q-45 5 -82 5q-66 -1 -108 -17q-60 -24 -60 -117 v-12q8 -252 8 -537v-8q-18 -13 -87 -13q-17 0 -37 1q-51 2 -88 2t-62 -2q0 44 -6 504z" />
<glyph unicode="s" horiz-adv-x="1024" d="M98 311v6v5q40 4 94 5h38q38 0 82 -1q66 -2 89 -2q2 -59 68 -93q41 -21 81 -21q24 0 47 8q62 20 60 93q1 8 1 15q0 36 -24 60q-30 28 -72 36t-111.5 23.5t-114.5 35.5q-111 37 -166 122q-51 79 -51 160v12q4 87 60.5 165t152.5 102q75 22 204 22h11q137 -1 244 -26 q178 -75 178 -329q-81 -14 -154 -13.5t-139 13.5q2 10 2 20q0 39 -39 71q-45 36 -94 36h-10q-59 -10 -83 -54q-12 -22 -12 -44t12 -45q24 -46 85 -68q293 -43 362 -133q54 -89 54 -191q0 -72 -27 -149q-89 -185 -358 -185h-9q-16 -1 -32 -1q-185 0 -302 87q-127 94 -127 258 z" />
<glyph unicode="t" horiz-adv-x="823" d="M29 766l6 250q55 -2 145 -2q0 35 -2 124q-1 59 -1 109v47q1 68 5 113q12 1 30 1q36 0 97 -5q53 -5 90 -5q28 0 47 3v-275q0 -16 1.5 -55t1.5 -59q53 2 309 16q16 -18 17 -66v-16q0 -41 -4 -89q-3 -32 -3 -55q0 -18 2 -30h-317q0 -291 2 -414q35 -52 131 -70 q72 -14 140 -13q22 0 44 1q14 -100 14 -169t-14 -107q-48 -2 -93 -2q-391 0 -468 182q-33 199 -33 518v70q-43 -2 -147 -2z" />
<glyph unicode="u" horiz-adv-x="940" d="M90 274q-3 76 -3 170q0 108 4 238t4 218q0 75 -3 120q55 8 256 8q4 -61 4 -228t4 -247q0 -8 2 -29.5t3 -34t4.5 -33t6.5 -32.5t8 -27.5t12 -26t16 -16.5q2 -2 4 -2t4 -2q28 -14 68 -15h3q38 1 78 29q41 30 45 97q1 23 1 58q0 79 -6 219q-3 73 -3 129q0 99 10 143v8 q18 13 80 13q15 0 33 -1q45 -2 80 -2t61 2q0 -44 6 -504q2 -175 2 -292q0 -192 -6 -230q-36 3 -71.5 3t-71.5 -3q-6 0 -42 -5t-54.5 -5t-26.5 8q-4 27 -4 63v46q-41 -23 -51 -31q-88 -66 -206 -71h-16q-108 0 -190 65q-39 34 -45 200z" />
<glyph unicode="v" horiz-adv-x="921" d="M35 1024q33 -4 87 -4q27 0 59 1t58 1q52 0 80 -4q12 -66 37 -220.5t48.5 -281.5t50.5 -199q29 78 77 345.5t82 353.5q29 0 119 5q50 3 93 3q34 0 63 -2q-66 -180 -149 -555t-107 -469q-47 -8 -115 -9h-36q-54 0 -120 2q-88 3 -114 3q-100 616 -213 1030z" />
<glyph unicode="w" horiz-adv-x="1462" d="M45 1024q33 -4 87 -4q27 0 60 1t60 1q53 0 80 -4q12 -66 35.5 -220.5t47 -281.5t50.5 -199q20 59 37.5 120t27 107t31 149.5t39.5 187.5l27 143q20 -2 43 -2q34 0 78 4q27 2 49 2q36 0 57 -6q4 -23 50 -314.5t81 -390.5q35 86 90 363.5t78 335.5q25 0 114 5q49 3 91 3 q33 0 61 -2q-66 -180 -148.5 -555t-107.5 -469q-47 -8 -109 -9h-33q-50 0 -110 2q-80 3 -108 3q-76 455 -80 475q-14 -66 -36.5 -228.5t-43.5 -242.5q-47 -8 -115 -9h-36q-55 0 -120 2q-87 3 -114 3q-100 616 -213 1030z" />
<glyph unicode="x" horiz-adv-x="950" d="M55 1018q92 6 144 6q170 0 176 -6q94 -342 96 -348q18 43 54 183t44 167q49 6 326 6h2q0 -2 -2 -2q-18 -55 -58 -160.5t-68 -192.5t-42 -167q16 -92 73.5 -267.5t71.5 -236.5q-14 2 -36 2q-14 0 -49 -1t-52 -1q-141 0 -160 6h-2q-20 47 -48.5 162t-49.5 162v2 q-25 -53 -54.5 -169t-53.5 -165q-10 0 -74 -1t-76 -1q-117 0 -147 12q16 61 76.5 236.5t80.5 261.5q-10 49 -22 98t-36 113.5t-34 93.5t-43 112t-37 95z" />
<glyph unicode="y" horiz-adv-x="1009" d="M59 -90q20 0 66.5 -2t70 -2t56.5 6t48 20.5t24 43.5q6 19 6 42q0 14 -2 31q-14 80 -34 171t-34 153.5t-43 176.5t-39 151.5t-47 172t-41 150.5q33 -4 91 -4q29 0 64.5 1t63.5 1q57 0 84 -4q8 -43 32 -171t41 -215t41.5 -190.5t45.5 -160.5q29 78 64.5 367.5t70.5 373.5 q29 0 142 3q37 1 67 1q60 0 90 -4q-31 -117 -108 -453q-14 -55 -36 -154.5t-37 -167t-46 -158.5t-63.5 -152.5t-91 -126t-129 -101.5t-174.5 -59q-72 -15 -157 -15q-36 0 -73 3q-24 74 -24 156q0 56 11 116z" />
<glyph unicode="z" horiz-adv-x="968" d="M63 264q70 90 238 247t231 232q-317 -14 -456 -32q-4 46 -4 96q0 34 2 69q3 59 3 103q0 22 -1 39q121 0 313.5 1t255.5 1q13 -3 53 -3q34 0 86.5 2t83.5 2q36 0 39 -3q0 -37 -2 -93.5t-2 -98.5t4 -83q-63 -68 -222 -220t-232 -236q34 3 120 3q43 0 98 -1h46q130 0 180 10 q0 -43 2 -139.5t2 -145.5q-504 -12 -833 -12q2 36 2 69q0 47 -4 87q-4 51 -4 84q0 12 1 22z" />
<glyph unicode="{" horiz-adv-x="655" d="M23 604q-16 74 4 201q76 -8 128 20.5t72.5 80.5t28.5 116.5t-2 128.5q-16 84 21.5 152.5t113.5 80.5q117 12 199 5q12 -84 2 -191q-31 -10 -46.5 -16t-36 -23.5t-24.5 -42.5q-4 -57 -4 -122.5t1 -122t-25.5 -103.5t-83.5 -68q119 -66 108 -264q-14 -213 117 -225 q0 -189 -2 -209q-160 -18 -255 50.5t-91 168.5q12 57 7 125t-22.5 126t-67.5 96t-126 34q-14 0 -16 2z" />
<glyph unicode="|" horiz-adv-x="360" d="M68 -51v1282v256q37 0 78.5 -2t68.5 -1t78 9v-2q0 -23 2 -774t2 -774h-18q-39 0 -124 3t-87 3z" />
<glyph unicode="}" horiz-adv-x="655" d="M59 211q131 12 117 225q-10 199 109 264q-57 20 -84 67.5t-26 104t1 122t-4 122.5q-4 25 -24.5 42.5t-36 23.5t-45.5 16q-10 106 2 191q82 8 198 -5q76 -12 114 -80.5t21 -152.5q-10 -63 -1.5 -128t29 -117t72.5 -80.5t128 -20.5q20 -127 4 -201q-2 -2 -17 -2 q-76 4 -126 -34t-67 -96t-22.5 -125.5t7.5 -125.5q4 -100 -91.5 -168.5t-255.5 -50.5q-2 20 -2 209z" />
<glyph unicode="~" horiz-adv-x="1177" d="M37 279q18 76 65.5 185t94.5 163q72 72 173 88t189 -37q29 -20 67 -68.5t58 -62.5q68 -59 127 4t78 137q35 2 221 8l6 -6q31 -154 -98 -338q-45 -55 -107 -76q-90 -37 -186 -4t-137 123q-43 61 -105 60q-43 0 -92 -25q-34 -22 -43 -49q-16 -41 0 -107v-2q-33 8 -180 9 q-84 0 -131 -2z" />
<glyph unicode="&#xa2;" horiz-adv-x="722" d="M51 531q-2 81 1 199t3 175q-14 127 62 226.5t202 68.5q4 2 4.5 58.5t0.5 64.5q6 12 29.5 16t41.5 -8v-2v-133h2q139 -4 216 -139t34 -269v-2q-102 -14 -205 7q-4 16 -4 59t-8 72.5t-35 46.5v-549h2q25 10 38.5 32.5t15.5 43t4 54.5t4 48q16 -2 93 0t93 -8v-2q0 -25 6 -81 t2 -87q-12 -90 -85.5 -153.5t-168.5 -75.5h-4v-3q-2 -20 0 -66t-2 -63l-2 -1q-2 -1 -4 -1q-47 -20 -61 2q-2 18 -3 40t0 41.5t-1 47.5q-84 -12 -165 35t-94 135q-10 90 -12 171zM262 815q-10 -143 2 -272q4 -92 58 -121q4 365 -3 545q-18 0 -30.5 -10.5t-16.5 -29t-6 -36 t-2 -42t-2 -34.5z" />
<glyph unicode="&#xa3;" horiz-adv-x="970" d="M24 708.5q-1 8.5 1 28.5q0 4 2 6q27 20 124 15.5t128 -0.5h6h10h2q-6 182 -3 385t11 227q186 0 240 12v-2q8 -317 0 -630q240 -12 268 -2h2q6 -53 3 -123t-8 -99.5t3 -50.5q-106 2 -148 2t-77 -2t-45 -2q-6 -10 5 -66.5t17 -62.5q307 -16 379 -22q-6 -98 -10 -177 t-5 -108t-1 -33h-169q-264 0 -357 3t-109 16q10 137 -4 458q-88 2 -158 3t-77 0t-25 1q0 82 -2 148.5t-3 75z" />
<glyph unicode="&#xa5;" horiz-adv-x="1069" d="M46 598q3 82 3 90h4q68 8 194 8t167 2q0 2 -1 2t-1 2q-29 98 -126.5 342t-121.5 373q49 -4 146.5 1t148.5 -1q10 -33 34.5 -113.5t46 -141t46.5 -113.5q66 119 162 350q2 2 4 2t4 2q190 27 286 8q-127 -375 -301 -698q16 -14 97.5 -11t101.5 -8h2v-2v-93q0 -83 4 -87v-2 q-23 6 -138.5 2t-145.5 -4q-18 -8 -32 -45t-22 -47l-2 -2h336q0 -168 4 -187q-129 2 -416 -10q-20 -37 -49.5 -117t-38.5 -98v-2h-2q-27 10 -136 4t-150 -2h-7q2 25 14.5 59.5t31 78.5t26.5 67q-18 6 -84.5 5t-87.5 13v2q2 33 1 65t1 64.5t8 51.5q47 -4 129 0t109 4v2 q6 12 12 24.5t12.5 28.5t12.5 27q0 4 2 6v2h-2q-12 2 -141.5 -1t-141.5 13q-6 2 -3 84z" />
<glyph unicode="&#xa9;" horiz-adv-x="1140" d="M63 913q10 98 76 177q84 106 248 131q242 12 334 -7q92 -16 170 -65q4 -2 12 -8t12 -8q45 -31 74 -79t42 -87t13 -114t-2 -107.5t-12 -124t-12 -111.5q-25 -95 -98 -166q-27 -27 -61 -46t-61.5 -29.5t-74.5 -17.5t-69.5 -9t-79 -6.5t-70.5 -4.5q-129 0 -221 29 q-188 86 -209 246q-29 166 -11 407zM213 903q-14 -106 4 -364q0 -66 61.5 -112t143.5 -50q18 2 130 7t169 15q74 12 116 72.5t50 140.5q10 125 8 219q0 4 -1 27t-1 29t-2 24.5t-6 27.5t-10.5 22.5t-16.5 25.5q-47 59 -168 84q-152 18 -303 0q-2 0 -4 -1t-6 -1 q-68 -12 -112 -58t-52 -108zM362 868q-2 23 11 52q14 45 43 69q8 6 41 21q109 33 195.5 -46t49.5 -190q-47 -6 -114 4q0 6 -2 27.5t-4 31t-8.5 23.5t-17.5 20.5t-28 6.5q-4 -2 -19.5 -6.5t-19.5 -8.5q-3 -3 -6 -12l-1 -27q-1 -28 -2 -61t-1 -71.5t2 -63.5q4 -61 43 -74 q43 -4 62 27l6 78q4 0 53 1t55 -5q25 -84 -22 -157t-133 -73q-63 -8 -118.5 16.5t-59.5 86.5q-6 86 -5 331z" />
<glyph unicode="&#xad;" d="M63 414q0 37 3.5 181t3.5 146h907q0 -39 -2 -108.5t-1 -126.5t9 -107h-2q-23 0 -459 7.5t-459 7.5z" />
<glyph unicode="&#xae;" horiz-adv-x="1130" d="M63 913q10 98 76 177q84 106 248 131q242 12 334 -7q92 -16 170 -65q4 -2 12 -8t12 -8q59 -45 91 -106.5t36.5 -152t0 -144.5t-18.5 -169q-2 -10 -5 -36t-7 -40q-28 -80 -92 -141q-27 -27 -61 -46t-61.5 -29.5t-74.5 -17.5t-69.5 -9t-79 -6.5t-70.5 -4.5q-129 0 -221 29 q-188 86 -209 246q-29 166 -11 407zM207 836q-2 -23 4 -246q4 -147 104 -187q25 -12 54 -18q74 -10 321 8l31 6q74 12 116 72.5t50 140.5q10 125 8 219q0 4 -1 27t-1 29t-2 24.5t-6 27.5t-10.5 22.5t-16.5 25.5q-47 59 -168 84q-152 18 -303 0q-2 0 -4 -1t-6 -1 q-68 -12 -112 -58t-52 -108zM354 1020q135 18 219 12q98 -8 146.5 -93t-0.5 -175q-39 -70 -107 -72h-4h-2v-2q14 -23 49 -74t60 -92t39 -82q-14 0 -60.5 -3t-72.5 -1h-3q-4 8 -21 45t-29.5 60.5t-31 54.5t-34.5 49l-2 4q-6 -37 -5 -66.5t5 -75.5t4 -60q-39 -10 -146 -11 q2 0 3 133.5t-1 277.5t-6 171zM475 852q0 -37 2 -51h2q66 -4 82 0q31 8 37 46t-18 56q-37 27 -105 2v-53z" />
<glyph unicode="&#xb4;" horiz-adv-x="522" d="M12 1083q27 25 157 158t185 176l142 -143l-2 -2q-12 -12 -62.5 -55t-93.5 -83t-51 -59q-68 -6 -156 -3t-119 11z" />
<glyph unicode="&#x2000;" horiz-adv-x="771" />
<glyph unicode="&#x2001;" horiz-adv-x="1542" />
<glyph unicode="&#x2002;" horiz-adv-x="771" />
<glyph unicode="&#x2003;" horiz-adv-x="1542" />
<glyph unicode="&#x2004;" horiz-adv-x="514" />
<glyph unicode="&#x2005;" horiz-adv-x="385" />
<glyph unicode="&#x2006;" horiz-adv-x="257" />
<glyph unicode="&#x2007;" horiz-adv-x="257" />
<glyph unicode="&#x2008;" horiz-adv-x="192" />
<glyph unicode="&#x2009;" horiz-adv-x="308" />
<glyph unicode="&#x200a;" horiz-adv-x="85" />
<glyph unicode="&#x2010;" d="M63 414q0 37 3.5 181t3.5 146h907q0 -39 -2 -108.5t-1 -126.5t9 -107h-2q-23 0 -459 7.5t-459 7.5z" />
<glyph unicode="&#x2011;" d="M63 414q0 37 3.5 181t3.5 146h907q0 -39 -2 -108.5t-1 -126.5t9 -107h-2q-23 0 -459 7.5t-459 7.5z" />
<glyph unicode="&#x2012;" d="M63 414q0 37 3.5 181t3.5 146h907q0 -39 -2 -108.5t-1 -126.5t9 -107h-2q-23 0 -459 7.5t-459 7.5z" />
<glyph unicode="&#x2013;" horiz-adv-x="909" d="M63 340q0 39 3.5 212t3.5 177h768q0 -164 6 -403h-2q-23 0 -389.5 7t-389.5 7z" />
<glyph unicode="&#x2014;" horiz-adv-x="1396" d="M66 328q0 39 3 218t3 183h1054h199q0 -23 -2 -123t-1 -172t9 -121h-2q-23 0 -631.5 7.5t-631.5 7.5z" />
<glyph unicode="&#x2018;" horiz-adv-x="421" d="M33 946q111 401 131 504h45q45 0 104.5 1t81.5 1v-2q-20 -80 -46.5 -184.5t-43 -165t-47.5 -146.5q0 -2 -2 -4h-2q-4 0 -66.5 -6t-100.5 -7t-54 9z" />
<glyph unicode="&#x2019;" horiz-adv-x="421" d="M33 946q111 401 131 504h45q45 0 104.5 1t81.5 1v-2q-20 -80 -46.5 -184.5t-43 -165t-47.5 -146.5q0 -2 -2 -4h-2q-4 0 -66.5 -6t-100.5 -7t-54 9z" />
<glyph unicode="&#x201c;" horiz-adv-x="778" d="M43 936v2q20 80 47 184.5t43.5 165t46.5 146.5q0 2 2 4h2q4 0 66.5 6t99.5 7t56 -9q-41 -176 -132 -504h-45q-45 0 -104 -1t-82 -1zM371 936v2q20 80 46.5 184.5t43 165t47.5 146.5q0 2 2 4h2q4 0 66.5 6t99.5 7t55 -9q-41 -176 -131 -504h-45q-45 0 -104.5 -1t-81.5 -1z " />
<glyph unicode="&#x201d;" horiz-adv-x="778" d="M45 946q111 401 131 504h45q45 0 104.5 1t82.5 1v-2q-20 -80 -47 -184.5t-43.5 -165t-47.5 -146.5q0 -2 -2 -4h-2q-4 0 -66.5 -6t-100.5 -7t-54 9zM373 946q111 401 131 504h45q45 0 104.5 1t81.5 1v-2q-20 -80 -46.5 -184.5t-43 -165t-47.5 -146.5q0 -2 -2 -4h-2 q-4 0 -66.5 -6t-100.5 -7t-54 9z" />
<glyph unicode="&#x2022;" horiz-adv-x="499" d="M59 571q0 63 9 107q6 14 6 16q10 25 24 33q25 14 29 16q20 6 31 9q2 0 8 1t10 1h96q55 0 72 -6q88 -27 96 -95q6 -51 -6 -180q-14 -70 -63 -90q-23 -10 -74 -14q-12 0 -35.5 -1t-43 -2t-38.5 -4h-2q-55 -7 -98 50q-12 20 -14 37q-9 61 -7 122z" />
<glyph unicode="&#x2026;" horiz-adv-x="1069" d="M69 77q-1 48 1 102t2 61q39 16 134 16t122 -12l-3 -53q-3 -52 -6.5 -111.5t-3.5 -75.5v-2v-2h-4l-231 2h-6q-4 27 -5 75zM407 78q-1 47 1 100t2 62q39 16 134 16t122 -12l-3 -53q-3 -52 -6.5 -111.5t-3.5 -75.5v-2v-2h-4l-231 2h-6q-4 29 -5 76zM746.5 77q-1.5 48 1 102 t2.5 61q39 16 134 16t122 -12l-4 -53q-3 -52 -6 -111.5t-3 -75.5v-2v-2h-4l-231 2h-6q-4 27 -5.5 75z" />
<glyph unicode="&#x202f;" horiz-adv-x="308" />
<glyph unicode="&#x205f;" horiz-adv-x="385" />
<glyph unicode="&#x20ac;" horiz-adv-x="1015" d="M64.5 660.5q3.5 144.5 3.5 304.5q10 184 86 303q43 63 112.5 104t147.5 55.5t168 20.5t176 3t172 1h2v-2q18 -166 4 -301q0 -4 -2 -6q-12 0 -61.5 4t-68 5t-63.5 1t-67.5 -3t-59 -11.5t-58 -20.5t-45.5 -32.5t-40 -47.5h8q141 0 174 -10v-2q12 -94 0 -203v-2 q-41 -14 -144 -14h-116h-2q0 -43 6 -68q193 0 256 -4q20 -82 2 -203q-47 -8 -129 -9t-108 -3q12 -63 52 -101t101.5 -52.5t121 -18.5t136 -6t119.5 -10v-2q-2 -31 4 -156t-8 -160q-149 -24 -440 -12l-37 4q-104 20 -193 72q-47 29 -75 65q-74 86 -106 229.5t-28.5 288z" />
<glyph unicode="&#x2122;" horiz-adv-x="1107" d="M49 1325q347 0 451 -10q4 -96 -4 -166q-37 8 -131 0h-3l-2 -2q-2 -4 7 -563v-2q-27 -4 -88.5 -4t-88.5 -5l1 14q1 13 1.5 35.5t1.5 54.5t0 79t-1 102t-2.5 129t-6.5 154l-2 2q-20 10 -72.5 11t-54.5 1q-16 29 -4 168zM594 1307q2 6 69.5 5t75.5 -1h2q14 -16 33 -51 t27 -48q2 -2 6 -2q14 16 37.5 52t36.5 51q18 0 74.5 3t82.5 1q-2 -66 0 -201t-2 -201l-2 -340h-141q-2 31 -4 168.5t-10 208.5q-12 -14 -32 -40.5t-26 -34.5q-10 4 -31.5 37.5t-44.5 29.5q-4 -266 3 -364q-23 -4 -150 -5q0 2 -2 5q-10 25 -2 727z" />
<glyph unicode="&#xe000;" horiz-adv-x="1025" d="M0 1025h1025v-1025h-1025v1025z" />
</font>
</defs>
</svg>
